[Header]
# KeyWord<space>Value<CR>FileType htr
DataType HTRS
FileVersion 1.0
NumSegments 32
NumFrames 5
DataFrameRate 24
EulerRotationOrder XYZ
CalibrationUnits m
RotationUnits Degrees
GlobalAxisofGravity Z
BoneLengthAxis Z
BoneLengthAxis Z
ScaleFactor 1.00
[SegmentNames&Hierarchy]
# ObjectName<tab>ParentObjectName<CR>
pelvis	GLOBAL
spine01	pelvis
spine02	spine01
spine03	spine02
neck	spine03
head	neck
Collar_left	spine03
shoulder_up_left	Collar_left
bicep_up_left	shoulder_up_left
forearm_up_left	bicep_up_left
hand_up_left	forearm_up_left
shoulder_down_left	Collar_left
bicep_down_left	shoulder_down_left
forearm_down_left	bicep_down_left
hand_down_left	forearm_down_left
Collar_right	spine03
shoulder_up_right	Collar_right
bicep_up_right	shoulder_up_right
forearm_up_right	bicep_up_right
hand_up_right	forearm_up_right
shoulder_down_right	Collar_right
bicep_down_right	shoulder_down_right
forearm_down_right	bicep_down_right
hand_down_right	forearm_down_right
hip_left	pelvis
thigh_left	hip_left
shin_left	thigh_left
foot_left	shin_left
hip_right	pelvis
thigh_right	hip_right
shin_right	thigh_right
foot_right	shin_right
[BasePosition]
# ObjectName<tab>Tx<tab>Ty<tab>Tz<tab>Rx<tab>Ry<tab>Rz<tab>BoneLength<CR>
pelvis	0.000000	-0.438872	6.292977	90.000003	-0.000000	0.000000	1.000000
spine01	0.000000	-0.438872	7.970248	90.000003	-0.000000	0.000000	1.000000
spine02	0.000000	-0.438872	10.340697	90.000003	-0.000000	0.000000	1.000000
spine03	0.000000	-0.438872	13.021563	90.000003	-0.000000	0.000000	1.000000
neck	0.000000	-0.438872	16.182161	90.000003	-0.000000	0.000000	1.000000
head	0.000000	-0.438872	17.452044	90.000003	-0.000000	0.000014	1.000000
Collar_left	0.000000	-0.438872	16.182161	114.324943	-109.283163	-3.448282	1.000000
shoulder_up_left	-2.246972	-1.353188	15.416688	89.999955	-101.168646	0.000051	1.000000
bicep_up_left	-4.544489	-1.353188	14.963074	94.597615	-95.170613	-0.305692	1.000000
forearm_up_left	-8.587797	-1.657960	14.597347	85.600206	-93.126604	-0.279561	1.000000
hand_up_left	-12.306015	-1.353188	14.394166	85.300436	-97.657908	-0.750653	1.000000
shoulder_down_left	-2.246972	-1.353188	15.416688	97.171845	-144.053812	-0.627842	1.000000
bicep_down_left	-4.260035	-1.761673	12.646806	95.982825	-137.161086	0.000016	1.000000
forearm_down_left	-6.332484	-2.081106	10.411811	78.293864	-138.751741	0.000033	1.000000
hand_down_left	-8.648752	-1.353187	7.770453	89.999989	-141.340205	0.000017	1.000000
Collar_right	0.000000	-0.438872	16.182161	114.324943	109.283163	3.448282	1.000000
shoulder_up_right	2.246972	-1.353188	15.416688	89.999955	101.168646	-0.000051	1.000000
bicep_up_right	4.544489	-1.353188	14.963074	94.597615	95.170613	0.305692	1.000000
forearm_up_right	8.587797	-1.657960	14.597347	85.600206	93.126604	0.279561	1.000000
hand_up_right	12.306015	-1.353188	14.394166	85.300436	97.657908	0.750653	1.000000
shoulder_down_right	2.246972	-1.353188	15.416688	97.171845	144.053812	0.627842	1.000000
bicep_down_right	4.260035	-1.761673	12.646806	95.982825	137.161086	-0.000016	1.000000
forearm_down_right	6.332484	-2.081106	10.411811	78.293864	138.751741	-0.000033	1.000000
hand_down_right	8.648752	-1.353187	7.770453	89.999989	141.340205	-0.000017	1.000000
hip_left	0.000000	-0.438872	6.292977	-6.241914	-0.000005	89.999996	1.000000
thigh_left	-2.600721	-0.438872	6.008523	-79.303489	-0.000003	90.000003	1.000000
shin_left	-3.000499	-0.438872	3.892051	-90.969439	1.681318	89.968611	1.000000
foot_left	-2.953466	-0.520526	1.111133	-93.081914	-75.718200	93.179995	1.000000
hip_right	0.000000	-0.438872	6.292977	-6.241914	0.000005	-89.999996	1.000000
thigh_right	2.600721	-0.438872	6.008523	-79.303489	0.000003	-90.000003	1.000000
shin_right	3.000499	-0.438872	3.892051	-90.969439	-1.681318	-89.968611	1.000000
foot_right	2.953466	-0.520526	1.111133	-93.081914	75.718200	-93.179995	1.000000
[pelvis]
# Tx<tab>Ty<tab>Tz<tab>Rx<tab>Ry<tab>Rz<tab>BoneScaleFactor<CR>
49	0.000000	0.000000	0.000000	0.000000	-0.000000	0.000000	1.000000
50	0.000000	0.000000	0.000000	0.000000	-0.000000	0.000000	1.000000
51	0.000000	0.000000	0.000000	0.000000	-0.000000	0.000000	1.000000
52	0.000000	0.000000	0.000000	0.000000	-0.000000	0.000000	1.000000
53	0.000000	0.000000	0.000000	0.000000	-0.000000	0.000000	1.000000
[spine01]
# Tx<tab>Ty<tab>Tz<tab>Rx<tab>Ry<tab>Rz<tab>BoneScaleFactor<CR>
49	0.000000	0.000000	0.000000	-4.934039	0.000000	0.000000	1.000000
50	0.000000	0.000000	0.000000	-4.196458	0.000000	0.000000	1.000000
51	0.000000	0.000000	0.000000	-3.495217	0.000000	0.000000	1.000000
52	0.000000	0.000000	0.000000	-2.837514	0.000000	0.000000	1.000000
53	0.000000	0.000000	0.000000	-2.230525	0.000000	0.000000	1.000000
[spine02]
# Tx<tab>Ty<tab>Tz<tab>Rx<tab>Ry<tab>Rz<tab>BoneScaleFactor<CR>
49	0.000000	0.000000	0.000000	-6.051047	0.000000	0.000000	1.000000
50	-0.000000	0.000000	0.000000	-5.145743	0.000000	0.000000	1.000000
51	0.000000	0.000000	0.000000	-4.285231	0.000000	0.000000	1.000000
52	0.000000	0.000000	0.000000	-3.478337	0.000000	0.000000	1.000000
53	0.000000	0.000000	0.000000	-2.733858	0.000000	0.000000	1.000000
[spine03]
# Tx<tab>Ty<tab>Tz<tab>Rx<tab>Ry<tab>Rz<tab>BoneScaleFactor<CR>
49	0.000000	0.000000	0.000000	-4.678232	0.000000	0.000000	1.000000
50	-0.000000	-0.000001	0.000000	-3.979007	0.000000	0.000000	1.000000
51	0.000000	0.000000	0.000000	-3.314200	0.000000	0.000000	1.000000
52	0.000000	0.000000	0.000000	-2.690641	0.000000	0.000000	1.000000
53	0.000000	0.000000	0.000000	-2.115134	0.000000	0.000000	1.000000
[neck]
# Tx<tab>Ty<tab>Tz<tab>Rx<tab>Ry<tab>Rz<tab>BoneScaleFactor<CR>
49	0.000000	0.000000	0.000000	0.000000	-0.000000	0.000000	1.000000
50	0.000000	0.000000	0.000000	0.000000	-0.000000	-0.000000	1.000000
51	-0.000000	0.000000	0.000000	0.000000	-0.000000	0.000000	1.000000
52	-0.000000	0.000000	0.000000	0.000000	0.000000	0.000000	1.000000
53	0.000000	0.000000	0.000000	0.000000	-0.000000	0.000000	1.000000
[head]
# Tx<tab>Ty<tab>Tz<tab>Rx<tab>Ry<tab>Rz<tab>BoneScaleFactor<CR>
49	0.000000	0.000000	0.000000	-0.795591	-0.000000	-0.000001	1.000000
50	0.000000	0.000000	-0.000000	-0.676847	-0.000000	-0.000001	1.000000
51	0.000000	0.000002	0.000000	-0.563906	-0.000000	-0.000001	1.000000
52	0.000000	0.000000	0.000000	-0.457927	-0.000000	-0.000001	1.000000
53	-0.000000	0.000000	0.000000	-0.360074	-0.000000	-0.000001	1.000000
[Collar_left]
# Tx<tab>Ty<tab>Tz<tab>Rx<tab>Ry<tab>Rz<tab>BoneScaleFactor<CR>
49	-0.000002	-0.000000	0.000000	0.000001	0.000002	-0.000002	1.000000
50	0.000001	0.000000	0.000000	0.000000	-0.000000	0.000000	1.000000
51	0.000001	0.000000	0.000000	-0.000001	-0.000000	0.000001	1.000000
52	0.000001	-0.000000	0.000000	0.000000	-0.000002	-0.000001	1.000000
53	0.000000	0.000000	0.000000	0.000000	-0.000000	0.000000	1.000000
[shoulder_up_left]
# Tx<tab>Ty<tab>Tz<tab>Rx<tab>Ry<tab>Rz<tab>BoneScaleFactor<CR>
49	-0.000002	-0.000000	0.000000	-0.000001	-0.000003	-11.620171	1.000000
50	0.000001	-0.000000	0.000000	-0.000002	-0.000003	-9.870076	1.000000
51	0.000000	0.000000	0.000000	-0.000001	-0.000003	-8.209507	1.000000
52	0.000000	0.000000	-0.000000	-0.000001	-0.000005	-6.655470	1.000000
53	0.000000	0.000000	0.000000	-0.000001	-0.000004	-5.224617	1.000000
[bicep_up_left]
# Tx<tab>Ty<tab>Tz<tab>Rx<tab>Ry<tab>Rz<tab>BoneScaleFactor<CR>
49	0.000001	0.000000	0.000000	0.000000	-0.000000	0.000000	1.000000
50	-0.000001	0.000001	0.000000	-0.000000	-0.000000	0.000000	1.000000
51	0.000000	0.000000	-0.000000	-0.000000	-0.000000	0.000000	1.000000
52	-0.000001	0.000000	0.000000	-0.000000	-0.000001	0.000000	1.000000
53	0.000000	0.000000	0.000000	0.000000	-0.000000	0.000000	1.000000
[forearm_up_left]
# Tx<tab>Ty<tab>Tz<tab>Rx<tab>Ry<tab>Rz<tab>BoneScaleFactor<CR>
49	0.000001	0.000001	0.000000	0.000000	-0.000002	0.000000	1.000000
50	-0.000002	0.000001	-0.000000	0.000000	-0.000000	0.000000	1.000000
51	-0.000001	-0.000001	0.000000	-0.000000	0.000001	0.000000	1.000000
52	0.000001	0.000001	-0.000000	-0.000000	-0.000000	-0.000000	1.000000
53	0.000000	0.000000	0.000000	0.000000	-0.000001	0.000000	1.000000
[hand_up_left]
# Tx<tab>Ty<tab>Tz<tab>Rx<tab>Ry<tab>Rz<tab>BoneScaleFactor<CR>
49	0.000000	0.000001	0.000000	-0.761110	-12.006860	-2.144975	1.000000
50	0.000000	0.000001	-0.000000	-0.674037	-10.195043	-1.827507	1.000000
51	0.000001	0.000000	0.000000	-0.582479	-8.476829	-1.525310	1.000000
52	0.000001	0.000001	0.000000	-0.488893	-6.869778	-1.241188	1.000000
53	0.000000	-0.000001	0.000000	-0.395930	-5.391005	-0.978098	1.000000
[shoulder_down_left]
# Tx<tab>Ty<tab>Tz<tab>Rx<tab>Ry<tab>Rz<tab>BoneScaleFactor<CR>
49	-0.000001	-0.000001	0.000000	0.000000	-0.000000	-0.000003	1.000000
50	0.000000	0.000000	0.000000	0.000000	0.000001	-0.000002	1.000000
51	-0.000001	0.000000	0.000000	-0.000001	-0.000000	0.000002	1.000000
52	0.000000	-0.000002	0.000000	-0.000001	-0.000000	0.000002	1.000000
53	0.000001	-0.000001	0.000000	0.000000	-0.000000	0.000002	1.000000
[bicep_down_left]
# Tx<tab>Ty<tab>Tz<tab>Rx<tab>Ry<tab>Rz<tab>BoneScaleFactor<CR>
49	0.000000	0.000000	0.000000	-10.938475	-9.749567	1.979661	1.000000
50	0.000000	-0.000000	0.000000	-9.245244	-8.300106	1.556772	1.000000
51	0.000001	0.000000	0.000000	-7.656272	-6.916045	1.197382	1.000000
52	0.000000	0.000000	0.000000	-6.183400	-5.614453	0.897432	1.000000
53	0.000001	-0.000000	0.000000	-4.838259	-4.411718	0.651939	1.000000
[forearm_down_left]
# Tx<tab>Ty<tab>Tz<tab>Rx<tab>Ry<tab>Rz<tab>BoneScaleFactor<CR>
49	0.000001	-0.000000	0.000000	-7.768998	-6.784263	-0.933004	1.000000
50	0.000000	0.000001	0.000000	-6.603050	-5.757236	-0.851325	1.000000
51	0.000001	-0.000000	0.000000	-5.496619	-4.783991	-0.754523	1.000000
52	0.000001	-0.000002	0.000000	-4.460409	-3.874527	-0.646938	1.000000
53	0.000000	0.000000	0.000000	-3.505161	-3.038516	-0.533353	1.000000
[hand_down_left]
# Tx<tab>Ty<tab>Tz<tab>Rx<tab>Ry<tab>Rz<tab>BoneScaleFactor<CR>
49	0.000000	0.000000	-0.000000	0.000000	0.000000	0.000005	1.000000
50	0.000001	-0.000000	0.000000	-0.000000	-0.000000	0.000000	1.000000
51	-0.000001	0.000000	0.000000	-0.000000	-0.000000	0.000002	1.000000
52	0.000000	0.000000	0.000000	0.000000	0.000000	0.000000	1.000000
53	0.000001	-0.000001	0.000000	0.000000	-0.000000	0.000000	1.000000
[Collar_right]
# Tx<tab>Ty<tab>Tz<tab>Rx<tab>Ry<tab>Rz<tab>BoneScaleFactor<CR>
49	0.000002	-0.000000	0.000000	0.000001	-0.000002	0.000002	1.000000
50	-0.000001	0.000000	0.000000	0.000000	-0.000000	0.000000	1.000000
51	-0.000001	0.000000	0.000000	-0.000001	-0.000000	-0.000001	1.000000
52	-0.000001	-0.000000	0.000000	0.000000	0.000002	0.000001	1.000000
53	0.000000	0.000000	0.000000	0.000000	-0.000000	0.000000	1.000000
[shoulder_up_right]
# Tx<tab>Ty<tab>Tz<tab>Rx<tab>Ry<tab>Rz<tab>BoneScaleFactor<CR>
49	0.000002	-0.000000	0.000000	1.736600	0.267990	13.040931	1.000000
50	-0.000001	-0.000000	0.000000	1.471131	0.252977	11.071302	1.000000
51	0.000000	0.000000	0.000000	1.220034	0.230325	9.203812	1.000000
52	0.000000	0.000000	-0.000000	0.986011	0.201750	7.457592	1.000000
53	0.000000	0.000000	0.000000	0.771575	0.169174	5.851225	1.000000
[bicep_up_right]
# Tx<tab>Ty<tab>Tz<tab>Rx<tab>Ry<tab>Rz<tab>BoneScaleFactor<CR>
49	-0.000001	0.000000	0.000000	-0.000000	0.000002	0.000000	1.000000
50	0.000000	0.000001	0.000000	0.000000	-0.000000	0.000000	1.000000
51	0.000000	-0.000000	0.000000	0.000000	-0.000000	-0.000000	1.000000
52	-0.000001	0.000000	0.000000	0.000000	-0.000000	0.000000	1.000000
53	0.000001	-0.000000	0.000000	0.000000	-0.000000	0.000000	1.000000
[forearm_up_right]
# Tx<tab>Ty<tab>Tz<tab>Rx<tab>Ry<tab>Rz<tab>BoneScaleFactor<CR>
49	-0.000002	0.000000	0.000000	-9.850151	-7.238582	7.262014	1.000000
50	-0.000002	0.000000	0.000000	-8.295389	-6.226564	6.079811	1.000000
51	-0.000001	0.000000	0.000000	-6.843953	-5.238486	4.987078	1.000000
52	0.000000	0.000000	-0.000000	-5.506463	-4.290428	3.990092	1.000000
53	0.000000	0.000000	0.000000	-4.292613	-3.398483	3.094063	1.000000
[hand_up_right]
# Tx<tab>Ty<tab>Tz<tab>Rx<tab>Ry<tab>Rz<tab>BoneScaleFactor<CR>
49	0.000000	0.000000	0.000001	1.093800	17.047447	1.293552	1.000000
50	-0.000001	0.000000	0.000000	0.896884	14.453355	1.069326	1.000000
51	-0.000001	0.000000	-0.000000	0.722071	11.998603	0.867782	1.000000
52	0.000000	-0.000001	0.000000	0.568194	9.708332	0.688122	1.000000
53	0.000000	0.000001	-0.000000	0.434205	7.606491	0.529698	1.000000
[shoulder_down_right]
# Tx<tab>Ty<tab>Tz<tab>Rx<tab>Ry<tab>Rz<tab>BoneScaleFactor<CR>
49	0.000001	-0.000001	0.000000	0.000000	-0.000000	0.000003	1.000000
50	0.000000	0.000000	0.000000	0.000000	-0.000001	0.000002	1.000000
51	0.000001	0.000000	0.000000	-0.000001	-0.000000	-0.000002	1.000000
52	0.000000	-0.000002	0.000000	-0.000001	-0.000000	-0.000002	1.000000
53	-0.000001	-0.000001	0.000000	0.000000	-0.000000	-0.000002	1.000000
[bicep_down_right]
# Tx<tab>Ty<tab>Tz<tab>Rx<tab>Ry<tab>Rz<tab>BoneScaleFactor<CR>
49	0.000000	0.000000	0.000000	-10.938475	9.749567	-1.979661	1.000000
50	0.000000	-0.000000	0.000000	-9.245244	8.300106	-1.556772	1.000000
51	-0.000001	0.000000	0.000000	-7.656272	6.916045	-1.197382	1.000000
52	0.000000	0.000000	0.000000	-6.183400	5.614453	-0.897432	1.000000
53	-0.000001	-0.000000	0.000000	-4.838259	4.411718	-0.651939	1.000000
[forearm_down_right]
# Tx<tab>Ty<tab>Tz<tab>Rx<tab>Ry<tab>Rz<tab>BoneScaleFactor<CR>
49	-0.000001	-0.000000	0.000000	-7.768998	6.784263	0.933004	1.000000
50	0.000000	0.000001	0.000000	-6.603050	5.757236	0.851325	1.000000
51	-0.000001	-0.000000	0.000000	-5.496619	4.783991	0.754523	1.000000
52	-0.000001	-0.000002	0.000000	-4.460409	3.874527	0.646938	1.000000
53	0.000000	0.000000	0.000000	-3.505161	3.038516	0.533353	1.000000
[hand_down_right]
# Tx<tab>Ty<tab>Tz<tab>Rx<tab>Ry<tab>Rz<tab>BoneScaleFactor<CR>
49	0.000000	0.000000	-0.000000	0.000000	-0.000000	-0.000005	1.000000
50	-0.000001	-0.000000	0.000000	-0.000000	-0.000000	0.000000	1.000000
51	0.000001	0.000000	0.000000	-0.000000	-0.000000	-0.000002	1.000000
52	0.000000	0.000000	0.000000	0.000000	-0.000000	0.000000	1.000000
53	-0.000001	-0.000001	0.000000	0.000000	-0.000000	0.000000	1.000000
[hip_left]
# Tx<tab>Ty<tab>Tz<tab>Rx<tab>Ry<tab>Rz<tab>BoneScaleFactor<CR>
49	0.000000	-0.000000	0.000000	0.000000	-0.000000	-0.000000	1.000000
50	0.000000	-0.000000	0.000000	0.000000	-0.000000	-0.000000	1.000000
51	0.000000	-0.000000	0.000000	0.000000	-0.000000	-0.000000	1.000000
52	0.000000	-0.000000	0.000000	0.000000	-0.000000	-0.000000	1.000000
53	0.000000	-0.000000	0.000000	0.000000	-0.000000	-0.000000	1.000000
[thigh_left]
# Tx<tab>Ty<tab>Tz<tab>Rx<tab>Ry<tab>Rz<tab>BoneScaleFactor<CR>
49	0.000000	-0.000000	0.000000	0.000001	-0.000000	0.000000	1.000000
50	0.000000	-0.000000	0.000000	0.000001	-0.000000	0.000000	1.000000
51	0.000000	-0.000000	0.000000	0.000001	-0.000000	0.000000	1.000000
52	0.000000	-0.000000	0.000000	0.000001	-0.000000	0.000000	1.000000
53	0.000000	-0.000000	0.000000	0.000001	-0.000000	0.000000	1.000000
[shin_left]
# Tx<tab>Ty<tab>Tz<tab>Rx<tab>Ry<tab>Rz<tab>BoneScaleFactor<CR>
49	0.000000	-0.000000	0.000000	0.000000	0.000000	-0.000000	1.000000
50	0.000000	-0.000000	0.000000	0.000000	0.000000	-0.000000	1.000000
51	0.000000	-0.000000	0.000000	0.000000	0.000000	-0.000000	1.000000
52	0.000000	-0.000000	0.000000	0.000000	0.000000	-0.000000	1.000000
53	0.000000	-0.000000	0.000000	0.000000	0.000000	-0.000000	1.000000
[foot_left]
# Tx<tab>Ty<tab>Tz<tab>Rx<tab>Ry<tab>Rz<tab>BoneScaleFactor<CR>
49	0.000000	-0.000000	0.000000	-0.000000	-0.000000	0.000000	1.000000
50	0.000000	-0.000000	0.000000	-0.000000	-0.000000	0.000000	1.000000
51	0.000000	-0.000000	0.000000	-0.000000	-0.000000	0.000000	1.000000
52	0.000000	-0.000000	0.000000	-0.000000	-0.000000	0.000000	1.000000
53	0.000000	-0.000000	0.000000	-0.000000	-0.000000	0.000000	1.000000
[hip_right]
# Tx<tab>Ty<tab>Tz<tab>Rx<tab>Ry<tab>Rz<tab>BoneScaleFactor<CR>
49	-0.000000	-0.000000	0.000000	0.000000	0.000000	0.000000	1.000000
50	-0.000000	-0.000000	0.000000	0.000000	0.000000	0.000000	1.000000
51	-0.000000	-0.000000	0.000000	0.000000	0.000000	0.000000	1.000000
52	-0.000000	-0.000000	0.000000	0.000000	0.000000	0.000000	1.000000
53	-0.000000	-0.000000	0.000000	0.000000	0.000000	0.000000	1.000000
[thigh_right]
# Tx<tab>Ty<tab>Tz<tab>Rx<tab>Ry<tab>Rz<tab>BoneScaleFactor<CR>
49	-0.000000	-0.000000	0.000000	0.000001	0.000000	-0.000000	1.000000
50	-0.000000	-0.000000	0.000000	0.000001	0.000000	-0.000000	1.000000
51	-0.000000	-0.000000	0.000000	0.000001	0.000000	-0.000000	1.000000
52	-0.000000	-0.000000	0.000000	0.000001	0.000000	-0.000000	1.000000
53	-0.000000	-0.000000	0.000000	0.000001	0.000000	-0.000000	1.000000
[shin_right]
# Tx<tab>Ty<tab>Tz<tab>Rx<tab>Ry<tab>Rz<tab>BoneScaleFactor<CR>
49	0.000000	-0.000000	0.000000	0.000000	-0.000000	0.000000	1.000000
50	0.000000	-0.000000	0.000000	0.000000	-0.000000	0.000000	1.000000
51	0.000000	-0.000000	0.000000	0.000000	-0.000000	0.000000	1.000000
52	0.000000	-0.000000	0.000000	0.000000	-0.000000	0.000000	1.000000
53	0.000000	-0.000000	0.000000	0.000000	-0.000000	0.000000	1.000000
[foot_right]
# Tx<tab>Ty<tab>Tz<tab>Rx<tab>Ry<tab>Rz<tab>BoneScaleFactor<CR>
49	-0.000000	-0.000000	0.000000	-0.000000	-0.000000	0.000000	1.000000
50	-0.000000	-0.000000	0.000000	-0.000000	-0.000000	0.000000	1.000000
51	-0.000000	-0.000000	0.000000	-0.000000	-0.000000	0.000000	1.000000
52	-0.000000	-0.000000	0.000000	-0.000000	-0.000000	0.000000	1.000000
53	-0.000000	-0.000000	0.000000	-0.000000	-0.000000	0.000000	1.000000
[EndOfFile]
